<svg xmlns="http://www.w3.org/2000/svg" version="1.1" xmlns:xlink="http://www.w3.org/1999/xlink" width="512" height="512" x="0" y="0" viewBox="0 0 100 100" style="enable-background:new 0 0 512 512" xml:space="preserve"><g><path d="M69.979 54.075 58.82 59.52a27.09 27.09 0 0 0-13.545 14.885L38.95 91.206c-.223.6-.694 1.07-1.293 1.305a2.25 2.25 0 0 1-2.88-1.305l-6.315-16.802a27.082 27.082 0 0 0-13.545-14.838L3.76 54.134a2.318 2.318 0 0 1-1.034-1.035 2.236 2.236 0 0 1 1.034-2.986l11.158-5.432a27.049 27.049 0 0 0 13.545-14.885l6.326-16.802c.223-.459.6-.835 1.058-1.058a2.333 2.333 0 0 1 3.116 1.058l6.326 16.766A27.05 27.05 0 0 0 58.82 44.657l11.158 5.42a2.241 2.241 0 0 1 1.258 2.023 2.213 2.213 0 0 1-1.258 1.975zM96.786 23.825l-4.12 2.01a9.581 9.581 0 0 0-4.786 5.245l-2.33 6.21c-.133.34-.4.607-.739.733a1.258 1.258 0 0 1-1.624-.732l-2.336-6.21a9.557 9.557 0 0 0-4.786-5.246l-4.12-2.01a1.223 1.223 0 0 1-.58-.579 1.263 1.263 0 0 1 .58-1.69l4.12-2.01a9.548 9.548 0 0 0 4.786-5.253l2.336-6.203a1.32 1.32 0 0 1 .6-.606 1.323 1.323 0 0 1 1.763.606l2.33 6.203a9.572 9.572 0 0 0 4.786 5.252l4.12 2.01c.253.12.46.326.586.58a1.262 1.262 0 0 1-.586 1.69z" fill="#0f2b4f" opacity="1" data-original="#000000"></path></g></svg>