<svg xmlns="http://www.w3.org/2000/svg" version="1.1" xmlns:xlink="http://www.w3.org/1999/xlink" width="512" height="512" x="0" y="0" viewBox="0 0 60 60" style="enable-background:new 0 0 512 512" xml:space="preserve" class=""><g><g fill="#000" fill-rule="nonzero" transform="translate(-1 -1)"><path d="M3 32.72V54a2 2 0 0 0-2 2v3a2 2 0 0 0 2 2h56a2 2 0 0 0 2-2v-3a2 2 0 0 0-2-2V32.72A2 2 0 0 0 60 31v-2.28a2 2 0 0 0 1-2.07l-2.66-15a2 2 0 0 0-2-1.67h-10.6l-13.1-8.5a3 3 0 0 0-3.27 0L16.27 10H5.68a2 2 0 0 0-2 1.65L1 26.65a2 2 0 0 0 .43 1.63 1.9 1.9 0 0 0 .54.44V31A2 2 0 0 0 3 32.72zM4 29h9v2H4zm36 25v-2h10v2zm-6 0h-6v-9a3 3 0 0 1 6 0zm-3-14a5 5 0 0 0-5 5v9h-2v-2a2 2 0 0 0-1-1.72V48a2 2 0 0 0-2-2V33h20v13a2 2 0 0 0-2 2v2.28A2 2 0 0 0 38 52v2h-2v-9a5 5 0 0 0-5-5zM15 24h4v22h-4zm7-2v-2h18v2a2 2 0 0 0 1 1.72V27H21v-3.28A2 2 0 0 0 22 22zm-1 7h20v2H21zm-7 19h7v2h-8v-2zm-2 4h10v2H12zm29-2v-2h8v2zm2-4V24h4v22zm5-24h-6v-2h6zm-7-4H15L31 7.58 47 18zm-21 2v2h-6v-2zM5 33h8v13a2 2 0 0 0-2 2v2.28A2 2 0 0 0 10 52v2H5zm54 26H3v-3h56zm-7-5v-2a2 2 0 0 0-1-1.72V48a2 2 0 0 0-2-2V33h8v21zm-3-23v-2h9v2zm7.33-19L59 27H49v-3.28A2 2 0 0 0 50 22v-2h1a3 3 0 0 0 2.93-3.62 2.94 2.94 0 0 0-1.3-1.9L48.81 12zM30.46 3.16a1 1 0 0 1 1.08 0l20 13a1 1 0 0 1 .44.63c.05.262 0 .533-.14.76a1 1 0 0 1-1.38.29L31.54 5.55a1 1 0 0 0-1.08 0L11.55 17.84a1 1 0 0 1-1.39-.3 1 1 0 0 1-.16-.75 1 1 0 0 1 .44-.63zM5.68 12h7.51l-3.82 2.48a2.94 2.94 0 0 0-1.3 1.9A3 3 0 0 0 11 20h1v2a2 2 0 0 0 1 1.72V27H3z" fill="#0f2b4f" opacity="1" data-original="#000000"></path><path d="M28 13a1 1 0 0 0 0 2h6a1 1 0 0 0 0-2zM37.13 41.5a1.003 1.003 0 1 0 1.74-1 9.13 9.13 0 0 0-15.74 0 1.003 1.003 0 0 0 1.74 1 7.12 7.12 0 0 1 12.26 0z" fill="#0f2b4f" opacity="1" data-original="#000000"></path><circle cx="31" cy="49" r="1" fill="#0f2b4f" opacity="1" data-original="#000000"></circle></g></g></svg>