<svg xmlns="http://www.w3.org/2000/svg" version="1.1" xmlns:xlink="http://www.w3.org/1999/xlink" width="512" height="512" x="0" y="0" viewBox="0 0 128 128" style="enable-background:new 0 0 512 512" xml:space="preserve" class=""><g><path d="m126.89 93.13-13.12-6.56-8.35-21.72a2 2 0 0 0-1.12-1.14L52.49 43a2 2 0 0 0-2.15.44l-6.91 6.91a2 2 0 0 0-.43 2.14l20.71 51.81a2 2 0 0 0 1.14 1.12l21.72 8.35 6.56 13.12A2 2 0 0 0 94.6 128a1.73 1.73 0 0 0 .32 0 2 2 0 0 0 1.41-.59l31.08-31.08a2 2 0 0 0 .59-1.73 2 2 0 0 0-1.11-1.47zm-79.7-40.9 1.11-1.1 25.79 25.79a11.77 11.77 0 1 0 2.83-2.83L51.13 48.3l1.1-1.11L102 67.1l7.85 20.42-22.33 22.33L67.1 102zm36.51 23.7a7.77 7.77 0 1 1-5.5 2.27 7.78 7.78 0 0 1 5.5-2.27zm11.77 46.69-5-10 22.13-22.13 10 5z" fill="#ffffff" opacity="1" data-original="#000000" class=""></path><path d="M38.25 107a2.06 2.06 0 0 0-2.83 0l-2.54 2.54a54.91 54.91 0 0 1-1-63.74 10.26 10.26 0 0 0 13.96-13.89 54.91 54.91 0 0 1 63.74 1L107 35.42a2 2 0 0 0-.58 1.41 2 2 0 0 0 .58 1.42l8.82 8.75a2 2 0 0 0 2.82 0l8.77-8.77a2 2 0 0 0 0-2.83l-8.77-8.77a2 2 0 0 0-2.82 0L112.43 30a58.91 58.91 0 0 0-59.1-6.87l11.53-11.5A6.13 6.13 0 1 0 62 8.8L42.54 28.29a10.27 10.27 0 0 0-14.25 14.25L8.8 62a6.14 6.14 0 1 0 2.83 2.83l11.53-11.5a58.91 58.91 0 0 0 6.84 59.1l-3.38 3.39a2 2 0 0 0 0 2.82l8.77 8.77a2 2 0 0 0 1.41.59 2 2 0 0 0 1.42-.59l8.78-8.77a2 2 0 0 0 0-2.82zm79-76.15 5.94 5.94-5.94 5.94-5.94-5.94zM66 4.63a2.13 2.13 0 1 1 0 3 2.12 2.12 0 0 1 0-3zM32.4 32.4a6.25 6.25 0 0 1 8.86 0 6.27 6.27 0 1 1-8.86 0zM7.64 69a2.13 2.13 0 0 1-3-3 2.14 2.14 0 0 1 3 0 2.12 2.12 0 0 1 0 3zm29.19 54.13-5.94-5.94 5.94-5.94 5.94 5.94z" fill="#ffffff" opacity="1" data-original="#000000" class=""></path></g></svg>