<svg xmlns="http://www.w3.org/2000/svg" version="1.1" xmlns:xlink="http://www.w3.org/1999/xlink" width="512" height="512" x="0" y="0" viewBox="0 0 512 512" style="enable-background:new 0 0 512 512" xml:space="preserve" class=""><g><path d="M491 460.156h-4.354v-208.22c0-7.101-6.611-11.872-12.785-11.872h-7.215V21c0-6.617-4.874-12-10.864-12h-37.356c-5.99 0-10.864 5.383-10.864 12v219.064h-26.115V61c0-6.616-4.874-12-10.865-12h-37.355c-5.991 0-10.865 5.383-10.865 12v179.064h-40.86v-87.127l19.384-3.404a11.98 11.98 0 0 0 9.925-11.819v-18.255a11.98 11.98 0 0 0-14.075-11.819L41.19 152.519a11.98 11.98 0 0 0-9.924 11.818v18.255a11.977 11.977 0 0 0 11.978 12.002c.696 0 1.397-.061 2.097-.183l15.233-2.675v144.102H33.647a7 7 0 0 0-7 7v117.318H21c-6.617 0-12 5.383-12 12V491c0 6.617 5.383 12 12 12h470c6.617 0 12-5.383 12-12v-18.844c0-6.616-5.383-12-12-12zm-18.354 0H210.942l.001-206.092h261.702v206.092zM452.646 23v13.11h-31.085V23zm-31.085 27.11h31.085v189.954h-31.085zM367.445 63v13.11h-31.086V63zm-31.086 27.111h31.086v149.953h-31.086zM45.267 180.21v-14.193l251.541-44.176v14.193zm29.308 9.068 192.924-33.881v84.668h-59.342c-6.498 0-11.215 4.993-11.215 11.872v83.902H74.575zm-33.927 160.56h156.294v110.319h-19.926v-75.564c0-6.617-5.383-12-12-12H72.574c-6.616 0-11.999 5.383-11.999 12v75.564H40.648zm33.927 110.318v-73.563h37.221v73.563zm51.221-73.563h37.221v73.563h-37.221zM489 489H23v-14.844h466zm-81.516-61.834h30.573c6.617 0 12-5.383 12-12v-30.573c0-6.616-5.383-12-12-12h-30.573c-6.616 0-11.999 5.383-11.999 12v30.573c0 6.616 5.383 12 11.999 12zm2.001-40.573h26.572v26.573h-26.572zm-163.954 40.573h30.573c6.616 0 11.999-5.383 11.999-12v-30.573c0-6.616-5.383-12-11.999-12h-30.573c-6.617 0-12 5.383-12 12v30.573c0 6.616 5.383 12 12 12zm2-40.573h26.572v26.573h-26.572zm78.977 40.573h30.573c6.617 0 12-5.383 12-12v-30.573c0-6.616-5.383-12-12-12h-30.573c-6.617 0-12 5.383-12 12v30.573c0 6.616 5.383 12 12 12zm2-40.573h26.573v26.573h-26.573zm-82.977-46.991h30.573c6.616 0 11.999-5.383 11.999-12v-30.573c0-6.617-5.383-12-11.999-12h-30.573c-6.617 0-12 5.383-12 12v30.573c0 6.616 5.383 12 12 12zm2-40.573h26.572v26.573h-26.572zm159.953 40.573h30.573c6.617 0 12-5.383 12-12v-30.573c0-6.616-5.383-12-12-12h-30.573c-6.616 0-11.999 5.383-11.999 12v30.573c0 6.616 5.383 12 11.999 12zm2.001-40.573h26.572v26.573h-26.572zm-82.977 40.573h30.573c6.617 0 12-5.383 12-12v-30.573c0-6.616-5.383-12-12-12h-30.573c-6.617 0-12 5.383-12 12v30.573c0 6.616 5.383 12 12 12zm2-40.573h26.573v26.573h-26.573zM134.082 195.884h-30.573c-6.616 0-11.999 5.383-11.999 12v30.573c0 6.617 5.383 12 11.999 12h30.573c6.617 0 12-5.383 12-12v-30.573c0-6.616-5.383-12-12-12zm-2 40.574H105.51v-26.573h26.572zm2 28.878h-30.573c-6.616 0-11.999 5.383-11.999 12v30.574c0 6.617 5.383 12 11.999 12h30.573c6.617 0 12-5.383 12-12v-30.574c0-6.617-5.383-12-12-12zm-2 40.573H105.51v-26.573h26.572z" fill="#0f2b4f" opacity="1" data-original="#000000"></path></g></svg>