<svg xmlns="http://www.w3.org/2000/svg" version="1.1" xmlns:xlink="http://www.w3.org/1999/xlink" width="512" height="512" x="0" y="0" viewBox="0 0 128 128" style="enable-background:new 0 0 512 512" xml:space="preserve" class=""><g><path d="M63 123a4.004 4.004 0 0 1-3.832-2.852l-24-80a4.001 4.001 0 0 1 4.981-4.981l80 24a4.007 4.007 0 0 1 2.809 3.24 4.002 4.002 0 0 1-1.738 3.92L101.281 79.62l20.549 20.551a3.997 3.997 0 0 1 0 5.656l-16 16a3.997 3.997 0 0 1-5.656 0l-20.551-20.549-13.293 19.939A4.003 4.003 0 0 1 63 123zm16-32c1.057 0 2.074.418 2.828 1.172L103 113.344 113.343 103 92.172 81.828a3.998 3.998 0 0 1 .61-6.157l16.926-11.283-64.74-19.422 19.422 64.74L75.673 92.78A3.994 3.994 0 0 1 79 91zM25.828 25.828a3.997 3.997 0 0 0 0-5.656l-8-8c-1.563-1.563-4.094-1.563-5.656 0s-1.563 4.094 0 5.656l8 8C20.953 26.609 21.976 27 23 27s2.047-.391 2.828-1.172zM23 39a4 4 0 0 0-4-4H7a4 4 0 0 0 0 8h12a4 4 0 0 0 4-4zm-5.172 26.828 8-8c1.563-1.563 1.563-4.094 0-5.656s-4.094-1.563-5.656 0l-8 8a3.997 3.997 0 0 0 0 5.656C12.953 66.609 13.976 67 15 67s2.047-.391 2.828-1.172zm40-40 8-8c1.563-1.563 1.563-4.094 0-5.656s-4.094-1.563-5.656 0l-8 8a3.997 3.997 0 0 0 0 5.656C52.953 26.609 53.976 27 55 27s2.047-.391 2.828-1.172zM43 19V7a4 4 0 0 0-8 0v12a4 4 0 0 0 8 0z" fill="#0f2b4f" opacity="1" data-original="#000000" class=""></path></g></svg>