<svg xmlns="http://www.w3.org/2000/svg" version="1.1" xmlns:xlink="http://www.w3.org/1999/xlink" width="512" height="512" x="0" y="0" viewBox="0 0 24 24" style="enable-background:new 0 0 512 512" xml:space="preserve"><g><path d="M22.5 17.5a1 1 0 0 1-1 1h-3v3a1 1 0 0 1-2 0v-3h-3a1 1 0 0 1 0-2h3v-3a1 1 0 0 1 2 0v3h3a1 1 0 0 1 1 1zm-19-8H5v-1A3.504 3.504 0 0 1 8.5 5h1V3.5a2 2 0 0 0-2-2h-4a2 2 0 0 0-2 2v4a2 2 0 0 0 2 2zm11 3v-4a2 2 0 0 0-2-2h-4a2 2 0 0 0-2 2v4a2 2 0 0 0 2 2h4a2 2 0 0 0 2-2z" fill="#ffffff" opacity="1" data-original="#000000"></path></g></svg>