<svg xmlns="http://www.w3.org/2000/svg" version="1.1" xmlns:xlink="http://www.w3.org/1999/xlink" width="512" height="512" x="0" y="0" viewBox="0 0 24 24" style="enable-background:new 0 0 512 512" xml:space="preserve" class=""><g><g fill="#000" fill-rule="evenodd" clip-rule="evenodd"><path d="M8.47 7.02c-.301.253-.657.65-1.2 1.26l-2.6 2.923c-.717.805-1.206 1.357-1.525 1.82-.308.448-.395.727-.395.977s.087.53.395.977c.319.463.808 1.015 1.524 1.82l2.6 2.922c.544.611.9 1.008 1.201 1.262.282.237.424.269.53.269s.248-.032.53-.269c.301-.254.657-.65 1.2-1.262l2.6-2.922c.717-.805 1.206-1.357 1.525-1.82.308-.448.395-.727.395-.977s-.087-.53-.395-.977c-.319-.463-.808-1.015-1.524-1.82l-2.6-2.922c-.544-.611-.9-1.008-1.201-1.262-.282-.237-.424-.269-.53-.269s-.248.032-.53.269zm-.967-1.148c.423-.357.898-.622 1.497-.622s1.074.265 1.497.622c.394.332.82.812 1.318 1.371l2.67 3c.674.758 1.227 1.38 1.606 1.93.394.573.659 1.151.659 1.827s-.265 1.254-.66 1.827c-.378.55-.93 1.172-1.606 1.93l-2.669 3c-.498.56-.924 1.039-1.318 1.37-.423.358-.898.623-1.497.623s-1.074-.265-1.497-.622c-.394-.332-.82-.812-1.318-1.371l-2.67-3c-.674-.758-1.227-1.38-1.606-1.93-.394-.573-.659-1.151-.659-1.827s.265-1.254.66-1.827c.378-.55.93-1.171 1.606-1.93l2.633-2.96.036-.04c.498-.56.924-1.039 1.318-1.37zM14.25 5a.75.75 0 0 1 .75-.75h7a.75.75 0 0 1 0 1.5h-7a.75.75 0 0 1-.75-.75z" fill="#ffffff" opacity="1" data-original="#000000"></path></g></g></svg>