<svg xmlns="http://www.w3.org/2000/svg" version="1.1" xmlns:xlink="http://www.w3.org/1999/xlink" width="512" height="512" x="0" y="0" viewBox="0 0 413.601 413.601" style="enable-background:new 0 0 512 512" xml:space="preserve" class=""><g><path d="M395.442 368.206H413.6v45.395h-45.396v-18.158h27.237v-27.237zm-285.484 45.395h64.563v-18.158h-64.563v18.158zm129.121 0h64.563v-18.158h-64.563v18.158zM18.158 368.206H0v45.395h45.395v-18.158H18.158v-27.237zm0-129.127H0v64.562h18.158v-64.562zm0-129.121H0v64.563h18.158v-64.563zM0 45.395h18.158V18.158h27.237V0H0v45.395zM174.521 0h-64.563v18.158h64.563V0zm64.558 18.158h64.563V0h-64.563v18.158zM368.205 0v18.158h27.237v27.237H413.6V0h-45.395zm27.237 303.642H413.6V239.08h-18.158v64.562zm0-129.121H413.6v-64.563h-18.158v64.563z" fill="#0f2b4f" opacity="1" data-original="#000000"></path></g></svg>