<svg xmlns="http://www.w3.org/2000/svg" version="1.1" xmlns:xlink="http://www.w3.org/1999/xlink" width="512" height="512" x="0" y="0" viewBox="0 0 24 24" style="enable-background:new 0 0 512 512" xml:space="preserve" class=""><g><path d="M8.526 21.75a2.611 2.611 0 0 1-.776-.118A2.545 2.545 0 0 1 5.937 19.3L5.253 5.237a2.855 2.855 0 0 1 4.672-2.328L20.812 11.9a2.57 2.57 0 0 1-1.645 4.551h-3.91a2.932 2.932 0 0 0-2.328 1.157l-2.357 3.118a2.553 2.553 0 0 1-2.046 1.024zM6.751 5.165l.684 14.063a1.045 1.045 0 0 0 .757.971 1.061 1.061 0 0 0 1.183-.38l2.357-3.119a4.442 4.442 0 0 1 3.525-1.752h3.91a1.057 1.057 0 0 0 1.017-.711 1.038 1.038 0 0 0-.327-1.183L8.97 4.065A1.327 1.327 0 0 0 7.494 3.9a1.313 1.313 0 0 0-.743 1.266z" fill="#ffffff" opacity="1" data-original="#000000"></path></g></svg>