<svg xmlns="http://www.w3.org/2000/svg" version="1.1" xmlns:xlink="http://www.w3.org/1999/xlink" width="512" height="512" x="0" y="0" viewBox="0 0 512 512" style="enable-background:new 0 0 512 512" xml:space="preserve" class=""><g><path d="M256 133.522A122.478 122.478 0 1 0 378.478 256 122.616 122.616 0 0 0 256 133.522zm11.043 222.26V337.95a11.043 11.043 0 0 0-22.086 0v17.832a100.576 100.576 0 0 1-88.739-88.739h17.833a11.043 11.043 0 0 0 0-22.086h-17.833a100.576 100.576 0 0 1 88.739-88.739v17.833a11.043 11.043 0 0 0 22.086 0v-17.833a100.576 100.576 0 0 1 88.739 88.739h-17.833a11.043 11.043 0 0 0 0 22.086h17.833a100.576 100.576 0 0 1-88.739 88.739z" fill="#123c74" opacity="1" data-original="#000000" class=""></path><path d="M267.043 251.442v-31.816a11.043 11.043 0 1 0-22.086 0V256a10.991 10.991 0 0 0 2.829 7.363c.119.144.247.286.387.426l.012.012.013.014 45.653 45.876a11.043 11.043 0 0 0 15.655-15.578zM256 96.487a11.043 11.043 0 0 0 11.043-11.043v-74.4a11.043 11.043 0 0 0-22.086 0v74.4A11.043 11.043 0 0 0 256 96.487zM113.815 161.159l-64.433-37.2a11.043 11.043 0 1 0-11.043 19.127l64.433 37.2a11.043 11.043 0 0 0 11.043-19.127zM102.772 331.715l-64.433 37.2a11.043 11.043 0 1 0 11.043 19.127l64.433-37.2a11.043 11.043 0 1 0-11.043-19.127zM256 415.514a11.043 11.043 0 0 0-11.043 11.043v74.4a11.043 11.043 0 0 0 22.086 0v-74.4A11.043 11.043 0 0 0 256 415.514zM473.661 368.915l-64.433-37.2a11.043 11.043 0 1 0-11.043 19.127l64.433 37.2a11.043 11.043 0 1 0 11.043-19.127zM403.718 181.768a10.993 10.993 0 0 0 5.51-1.482l64.433-37.2a11.043 11.043 0 0 0-11.043-19.127l-64.433 37.2a11.045 11.045 0 0 0 5.533 20.609zM474.67 248.991h-38.7a11.043 11.043 0 1 0 0 22.086h38.7a11.043 11.043 0 1 0 0-22.086zM374.35 59.079a11.044 11.044 0 0 0-15.085 4.043l-19.348 33.511a11.043 11.043 0 1 0 19.127 11.043l19.348-33.511a11.045 11.045 0 0 0-4.042-15.086zM159.942 103.643A11.043 11.043 0 0 0 179.07 92.6l-19.348-33.512a11.043 11.043 0 0 0-19.128 11.043zM76.026 263.01a11.043 11.043 0 1 0 0-22.086H37.33a11.043 11.043 0 0 0 0 22.086zM168.041 400.282a11.044 11.044 0 0 0-15.085 4.043l-19.348 33.511a11.043 11.043 0 1 0 19.127 11.043l19.348-33.511a11.044 11.044 0 0 0-4.042-15.086zM352.058 408.358A11.043 11.043 0 0 0 332.93 419.4l19.348 33.512a11.043 11.043 0 0 0 19.128-11.043z" fill="#123c74" opacity="1" data-original="#000000" class=""></path></g></svg>